<?xml version="1.0" standalone="no"?>
<svg xmlns="http://www.w3.org/2000/svg" xmlns:xlink="http://www.w3.org/1999/xlink" width="673pt" height="548pt" viewBox="0.00 0.00 672.5 548">
<g id="graph0" class="graph" transform="translate(4,544) scale(1)" data-name="">
<polygon fill="white" stroke="none" points="-4,4 -4,-544 668.5,-544 668.5,4 -4,4"/>
<!-- sstable -->
<g id="node1" class="node" pointer-events="visible" data-name="sstable">

<polygon fill="grey" stroke="none" points="230,-498 230,-536 354,-536 354,-498 230,-498"/>
<text text-anchor="start" x="240.56" y="-512.4" font-family="Times,serif" font-size="14.00">shared_bytes == 0</text>
<text text-anchor="start" x="364.96" y="-512.4" font-family="Times,serif" font-size="14.00">unshared_bytes</text>
<text text-anchor="start" x="473.95" y="-512.4" font-family="Times,serif" font-size="14.00">vlen</text><polygon fill="none" stroke="black" points="354,-498 354,-536 463,-536 463,-498 354,-498"/>
<text text-anchor="start" x="519.87" y="-512.4" font-family="Times,serif" font-size="14.00">unshared key</text>
<text text-anchor="start" x="615.84" y="-512.4" font-family="Times,serif" font-size="14.00">value</text><polygon fill="none" stroke="black" points="463,-498 463,-536 509,-536 509,-498 463,-498"/>
<text text-anchor="start" x="255.46" y="-474.4" font-family="Times,serif" font-size="14.00">shared_bytes</text>
<text text-anchor="start" x="364.96" y="-474.4" font-family="Times,serif" font-size="14.00">unshared_bytes</text><polygon fill="none" stroke="black" points="509,-498 509,-536 605,-536 605,-498 509,-498"/>
<text text-anchor="start" x="473.95" y="-474.4" font-family="Times,serif" font-size="14.00">vlen</text>
<text text-anchor="start" x="519.87" y="-474.4" font-family="Times,serif" font-size="14.00">unshared key</text><polygon fill="none" stroke="black" points="605,-498 605,-536 657,-536 657,-498 605,-498"/>
<text text-anchor="start" x="615.84" y="-474.4" font-family="Times,serif" font-size="14.00">value</text>
<text text-anchor="start" x="438.25" y="-436.4" font-family="Times,serif" font-size="14.00">...</text><polygon fill="none" stroke="black" points="230,-460 230,-498 354,-498 354,-460 230,-460"/>
<text text-anchor="start" x="438.25" y="-398.4" font-family="Times,serif" font-size="14.00">...</text>
<text text-anchor="start" x="438.25" y="-360.4" font-family="Times,serif" font-size="14.00">...</text><polygon fill="none" stroke="black" points="354,-460 354,-498 463,-498 463,-460 354,-460"/>
<polygon fill="none" stroke="black" points="230,-498 230,-536 354,-536 354,-498 230,-498"/>
<text text-anchor="start" x="240.56" y="-322.4" font-family="Times,serif" font-size="14.00">shared_bytes == 0</text><polygon fill="none" stroke="black" points="463,-460 463,-498 509,-498 509,-460 463,-460"/>
<text text-anchor="start" x="364.96" y="-322.4" font-family="Times,serif" font-size="14.00">unshared_bytes</text>
<polygon fill="none" stroke="black" points="463,-308 463,-346 509,-346 509,-308 463,-308"/>
<text text-anchor="start" x="473.95" y="-322.4" font-family="Times,serif" font-size="14.00">vlen</text><polygon fill="none" stroke="black" points="509,-460 509,-498 605,-498 605,-460 509,-460"/>

<polygon fill="none" stroke="black" points="509,-308 509,-346 605,-346 605,-308 509,-308"/>
<text text-anchor="start" x="519.87" y="-322.4" font-family="Times,serif" font-size="14.00">unshared key</text>

<polygon fill="none" stroke="black" points="605,-308 605,-346 657,-346 657,-308 605,-308"/>
<text text-anchor="start" x="615.84" y="-322.4" font-family="Times,serif" font-size="14.00">value</text><polygon fill="none" stroke="black" points="605,-460 605,-498 657,-498 657,-460 605,-460"/>

<polygon fill="none" stroke="black" points="230,-270 230,-308 354,-308 354,-270 230,-270"/>
<text text-anchor="start" x="255.46" y="-284.4" font-family="Times,serif" font-size="14.00">shared_bytes</text>

<polygon fill="none" stroke="black" points="354,-270 354,-308 463,-308 463,-270 354,-270"/>
<text text-anchor="start" x="364.96" y="-284.4" font-family="Times,serif" font-size="14.00">unshared_bytes</text><polygon fill="none" stroke="black" points="230,-422 230,-460 657,-460 657,-422 230,-422"/>

<polygon fill="none" stroke="black" points="463,-270 463,-308 509,-308 509,-270 463,-270"/>
<text text-anchor="start" x="473.95" y="-284.4" font-family="Times,serif" font-size="14.00">vlen</text>

<polygon fill="none" stroke="black" points="509,-270 509,-308 605,-308 605,-270 509,-270"/>
<text text-anchor="start" x="519.87" y="-284.4" font-family="Times,serif" font-size="14.00">unshared key</text><polygon fill="none" stroke="black" points="230,-384 230,-422 657,-422 657,-384 230,-384"/>

<polygon fill="none" stroke="black" points="605,-270 605,-308 657,-308 657,-270 605,-270"/>
<text text-anchor="start" x="615.84" y="-284.4" font-family="Times,serif" font-size="14.00">value</text>

<polygon fill="none" stroke="black" points="230,-232 230,-270 657,-270 657,-232 230,-232"/>
<text text-anchor="start" x="438.25" y="-246.4" font-family="Times,serif" font-size="14.00">...</text><polygon fill="none" stroke="black" points="230,-346 230,-384 657,-384 657,-346 230,-346"/>

<polygon fill="none" stroke="black" points="230,-194 230,-232 657,-232 657,-194 230,-194"/>
<text text-anchor="start" x="438.25" y="-208.4" font-family="Times,serif" font-size="14.00">...</text>

<polygon fill="none" stroke="black" points="230,-156 230,-194 657,-194 657,-156 230,-156"/>
<text text-anchor="start" x="438.25" y="-170.4" font-family="Times,serif" font-size="14.00">...</text><polygon fill="grey" stroke="none" points="230,-308 230,-346 354,-346 354,-308 230,-308"/>

<polygon fill="none" stroke="black" points="230,-118 230,-156 657,-156 657,-118 230,-118"/>
<text text-anchor="start" x="419.01" y="-132.4" font-family="Times,serif" font-size="14.00">restart 1 </text><polygon fill="none" stroke="black" points="230,-308 230,-346 354,-346 354,-308 230,-308"/>

<polygon fill="none" stroke="black" points="230,-80 230,-118 657,-118 657,-80 230,-80"/>
<text text-anchor="start" x="438.25" y="-94.4" font-family="Times,serif" font-size="14.00">...</text>

<polygon fill="none" stroke="black" points="230,-42 230,-80 657,-80 657,-42 230,-42"/>
<text text-anchor="start" x="417.46" y="-56.4" font-family="Times,serif" font-size="14.00">restart N </text><polygon fill="none" stroke="black" points="354,-308 354,-346 463,-346 463,-308 354,-308"/>

<polygon fill="none" stroke="black" points="230,-4 230,-42 657,-42 657,-4 230,-4"/>
<text text-anchor="start" x="378.26" y="-18.4" font-family="Times,serif" font-size="14.00">length of restarts == N </text>

</g>
<!-- sstable&#45;&gt;sstable -->
<g id="edge1" class="edge" data-name="sstable:r1-&gt;sstable:d1" data-comment="sstable-&gt;sstable">

<path fill="none" stroke="black" d="M230.28,-141.78C110.57,-158.14 0,-205.44 0,-327 0,-492.11 101.65,-520.23 218.71,-519.88"/>
<polygon fill="black" stroke="black" points="218.61,-523.38 228.57,-519.77 218.53,-516.38 218.61,-523.38"/>
</g>
<!-- sstable&#45;&gt;sstable -->
<g id="edge2" class="edge" data-name="sstable:rn-&gt;sstable:dn" data-comment="sstable-&gt;sstable">

<path fill="none" stroke="black" d="M230.28,-62.42C110.57,-73.51 0,-107.26 0,-194 0,-311.81 101.65,-331.88 218.71,-330.16"/>
<polygon fill="black" stroke="black" points="218.64,-333.66 228.57,-329.96 218.5,-326.66 218.64,-333.66"/>
</g>
</g>
</svg>