<?xml version="1.0" standalone="no"?>
<svg xmlns="http://www.w3.org/2000/svg" xmlns:xlink="http://www.w3.org/1999/xlink" width="715pt" height="307pt" viewBox="0.00 0.00 714.80 307.00">
<g id="graph0" class="graph" transform="translate(4,303) scale(1)" data-name="G">

<polygon fill="white" stroke="none" points="-4,4 -4,-303 710.8,-303 710.8,4 -4,4" style=""/>
<!-- divider_point_writes -->
<g id="node1" class="node" pointer-events="visible" data-name="divider_point_writes">

<ellipse fill="black" stroke="black" cx="222.94" cy="-245" rx="0" ry="0" style=""/>
</g>
<!-- WAL -->
<g id="node2" class="node" pointer-events="visible" data-name="WAL">

<polygon fill="none" stroke="black" points="284.31,-227.3 161.56,-227.3 161.56,-182.7 284.31,-182.7 284.31,-227.3" style=""/>
<text text-anchor="middle" x="222.94" y="-200.8" font-family="Times,serif" font-size="14.00" style="">预写日志（WAL）</text>
</g>
<!-- divider_point_writes&#45;&gt;WAL -->
<g id="edge9" class="edge" data-name="divider_point_writes-&gt;WAL">

<path fill="none" stroke="black" d="M222.94,-244.73C222.94,-242.75 222.94,-240.78 222.94,-238.8" style=""/>
<polygon fill="black" stroke="black" points="226.44,-239.01 222.94,-229.01 219.44,-239.01 226.44,-239.01" style=""/>
</g>
<!-- divider_m_l0 -->
<g id="node11" class="node" pointer-events="visible" data-name="divider_m_l0">

<ellipse fill="black" stroke="black" cx="359.09" cy="-245" rx="0" ry="0" style=""/>
</g>
<!-- divider_point_writes&#45;&gt;divider_m_l0 -->
<g id="edge23" class="edge" data-name="divider_point_writes-&gt;divider_m_l0">

<path fill="none" stroke="black" stroke-dasharray="5,2" d="M224.04,-245C228.03,-245 354.06,-245 357.99,-245" style=""/>
</g>
<!-- divider_w_m -->
<!-- WAL&#45;&gt;divider_w_m -->
<!-- l0 -->
<g id="node12" class="node" pointer-events="visible" data-name="l0">

<text text-anchor="middle" x="359.09" y="-201.8" font-family="Times,serif" font-size="14.00" style="">Level 0</text>
</g>
<!-- WAL&#45;&gt;l0 -->
<!-- Manifest -->
<g id="node4" class="node" pointer-events="visible" data-name="Manifest">

<polygon fill="none" stroke="black" points="255.7,-111 190.17,-111 190.17,-75 255.7,-75 255.7,-111" style=""/>
<text text-anchor="middle" x="222.94" y="-88.8" font-family="Times,serif" font-size="14.00" style="">Manifest</text>
</g>
<!-- divider_w_m&#45;&gt;Manifest -->
<!-- Manifest&#45;&gt;WAL -->
<g id="edge12" class="edge" data-name="Manifest-&gt;WAL">

<path fill="none" stroke="black" d="M190.05,-98.87C172.93,-103.8 153.53,-112.77 143.5,-129 135.09,-142.61 135.11,-151.38 143.5,-165 146.01,-169.07 149.07,-172.74 152.51,-176.04" style=""/>
<polygon fill="black" stroke="black" points="150.03,-178.54 159.99,-182.16 154.47,-173.12 150.03,-178.54" style=""/>
</g>
<!-- manifest_helper -->
<g id="node14" class="node" pointer-events="visible" data-name="manifest_helper">

<ellipse fill="black" stroke="black" cx="359.09" cy="-93" rx="0" ry="0" style=""/>
</g>
<!-- Manifest&#45;&gt;manifest_helper -->
<g id="edge31" class="edge" data-name="Manifest-&gt;manifest_helper">

<path fill="none" stroke="black" d="M256.07,-87.14C285.67,-85.48 327.88,-86.14 347.41,-89.13" style=""/>
<polygon fill="black" stroke="black" points="346.01,-92.36 356.61,-92.23 348.25,-85.72 346.01,-92.36" style=""/>
</g>
<!-- Manifest&#45;&gt;manifest_helper -->
<!-- immutable -->
<g id="node5" class="node" pointer-events="visible" data-name="immutable">

<polygon fill="none" stroke="black" points="590.45,-299 514.15,-299 514.15,-263 590.45,-263 590.45,-299" style=""/>
<text text-anchor="middle" x="552.3" y="-276.8" font-family="Times,serif" font-size="14.00" style="">Immutable</text>
</g>
<!-- divider_point -->
<g id="node6" class="node" pointer-events="visible" data-name="divider_point">

<ellipse fill="black" stroke="black" cx="552.3" cy="-245" rx="0" ry="0" style=""/>
</g>
<!-- immutable&#45;&gt;divider_point -->
<g id="edge1" class="edge" data-name="immutable-&gt;divider_point">

<path fill="none" stroke="black" d="M552.3,-262.58C552.3,-256.82 552.3,-251.05 552.3,-245.28" style=""/>
</g>
<!-- sst_file -->
<g id="node7" class="node" pointer-events="visible" data-name="sst_file">

<polygon fill="none" stroke="black" points="476.3,-195 476.3,-221 521.3,-221 521.3,-195 476.3,-195" style=""/>
<text text-anchor="start" x="480.9" y="-203.4" font-family="Times,serif" font-size="14.00" style=""> sst 0  </text>
<polygon fill="grey" stroke="none" points="521.3,-195 521.3,-221 538.3,-221 538.3,-195 521.3,-195" style=""/>
<polygon fill="none" stroke="black" points="521.3,-195 521.3,-221 538.3,-221 538.3,-195 521.3,-195" style=""/>
<text text-anchor="start" x="526.3" y="-203.4" font-family="Times,serif" font-size="14.00" style="">  </text>
<polygon fill="none" stroke="black" points="538.3,-195 538.3,-221 573.3,-221 573.3,-195 538.3,-195" style=""/>
<text text-anchor="start" x="543.15" y="-203.4" font-family="Times,serif" font-size="14.00" style="">sst 1</text>
<polygon fill="none" stroke="black" points="573.3,-195 573.3,-221 593.3,-221 593.3,-195 573.3,-195" style=""/>
<text text-anchor="start" x="578.05" y="-203.4" font-family="Times,serif" font-size="14.00" style="">...</text>
<polygon fill="none" stroke="black" points="593.3,-195 593.3,-221 628.3,-221 628.3,-195 593.3,-195" style=""/>
<text text-anchor="start" x="598.15" y="-203.4" font-family="Times,serif" font-size="14.00" style="">sst n</text>
</g>
<!-- divider_point&#45;&gt;sst_file -->
<g id="edge2" class="edge" data-name="divider_point-&gt;sst_file">

<path fill="none" stroke="black" d="M552.3,-244.7C552.3,-242.26 552.3,-239.81 552.3,-237.37" style=""/>
<polygon fill="black" stroke="black" points="555.8,-237.44 552.3,-227.44 548.8,-237.44 555.8,-237.44" style=""/>
</g>
<!-- end -->
<g id="node22" class="node" pointer-events="visible" data-name="end">

<ellipse fill="black" stroke="black" cx="706.8" cy="-245" rx="0" ry="0" style=""/>
</g>
<!-- divider_point&#45;&gt;end -->
<g id="edge25" class="edge" data-name="divider_point-&gt;end">

<path fill="none" stroke="black" stroke-dasharray="5,2" d="M553.41,-245C557.95,-245 701.21,-245 705.69,-245" style=""/>
</g>
<!-- sst_file1 -->
<g id="node8" class="node" pointer-events="visible" data-name="sst_file1">

<polygon fill="none" stroke="black" points="474.3,-134 474.3,-168 517.3,-168 517.3,-134 474.3,-134" style=""/>
<text text-anchor="start" x="483.15" y="-146.4" font-family="Times,serif" font-size="14.00" style="">sst 0</text>
<polygon fill="none" stroke="black" points="517.3,-134 517.3,-168 560.3,-168 560.3,-134 517.3,-134" style=""/>
<text text-anchor="start" x="526.15" y="-146.4" font-family="Times,serif" font-size="14.00" style="">sst 1</text>
<polygon fill="none" stroke="black" points="560.3,-134 560.3,-168 588.3,-168 588.3,-134 560.3,-134" style=""/>
<text text-anchor="start" x="569.05" y="-146.4" font-family="Times,serif" font-size="14.00" style="">...</text>
<polygon fill="none" stroke="black" points="588.3,-134 588.3,-168 631.3,-168 631.3,-134 588.3,-134" style=""/>
<text text-anchor="start" x="597.15" y="-146.4" font-family="Times,serif" font-size="14.00" style="">sst n</text>
</g>
<!-- sst_file&#45;&gt;sst_file1 -->
<g id="edge3" class="edge" data-name="sst_file-&gt;sst_file1">

<path fill="none" stroke="black" d="M552.3,-190.25C552.3,-187.96 552.3,-185.67 552.3,-183.38" style=""/>
<polygon fill="black" stroke="black" points="555.8,-183.44 552.3,-173.44 548.8,-183.44 555.8,-183.44" style=""/>
</g>
<!-- dot -->
<g id="node9" class="node" pointer-events="visible" data-name="dot">

<text text-anchor="middle" x="552.3" y="-89.8" font-family="Times,serif" font-size="14.00" style="">...</text>
</g>
<!-- sst_file1&#45;&gt;dot -->
<g id="edge4" class="edge" data-name="sst_file1-&gt;dot">

<path fill="none" stroke="black" d="M552.3,-130.18C552.3,-127.89 552.3,-125.59 552.3,-123.29" style=""/>
<polygon fill="black" stroke="black" points="555.8,-123.33 552.3,-113.33 548.8,-123.33 555.8,-123.33" style=""/>
</g>
<!-- sst_filen -->
<g id="node10" class="node" pointer-events="visible" data-name="sst_filen">

<polygon fill="none" stroke="black" points="442.3,-4 442.3,-54 501.3,-54 501.3,-4 442.3,-4" style=""/>
<text text-anchor="start" x="459.15" y="-24.4" font-family="Times,serif" font-size="14.00" style="">sst 0</text>
<polygon fill="none" stroke="black" points="501.3,-4 501.3,-54 560.3,-54 560.3,-4 501.3,-4" style=""/>
<text text-anchor="start" x="518.15" y="-24.4" font-family="Times,serif" font-size="14.00" style="">sst 1</text>
<polygon fill="none" stroke="black" points="560.3,-4 560.3,-54 604.3,-54 604.3,-4 560.3,-4" style=""/>
<text text-anchor="start" x="577.05" y="-24.4" font-family="Times,serif" font-size="14.00" style="">...</text>
<polygon fill="none" stroke="black" points="604.3,-4 604.3,-54 663.3,-54 663.3,-4 604.3,-4" style=""/>
<text text-anchor="start" x="621.15" y="-24.4" font-family="Times,serif" font-size="14.00" style="">sst n</text>
</g>
<!-- dot&#45;&gt;sst_filen -->
<g id="edge5" class="edge" data-name="dot-&gt;sst_filen">

<path fill="none" stroke="black" d="M552.3,-76.25C552.3,-73.97 552.3,-71.68 552.3,-69.39" style=""/>
<polygon fill="black" stroke="black" points="555.8,-69.46 552.3,-59.46 548.8,-69.46 555.8,-69.46" style=""/>
</g>
<!-- divider_m_l0&#45;&gt;divider_point -->
<g id="edge24" class="edge" data-name="divider_m_l0-&gt;divider_point">

<path fill="none" stroke="black" stroke-dasharray="5,2" d="M360.23,-245C365.92,-245 545.55,-245 551.16,-245" style=""/>
</g>
<!-- divider_m_l0&#45;&gt;l0 -->
<!-- l0&#45;&gt;sst_file -->
<!-- l1 -->
<g id="node13" class="node" pointer-events="visible" data-name="l1">

<text text-anchor="middle" x="359.09" y="-146.8" font-family="Times,serif" font-size="14.00" style="">Level 1</text>
</g>
<!-- l0&#45;&gt;l1 -->
<!-- l1&#45;&gt;sst_file1 -->
<!-- l1&#45;&gt;manifest_helper -->
<!-- manifest_helper&#45;&gt;dot -->
<!-- l2 -->
<g id="node15" class="node" pointer-events="visible" data-name="l2">

<text text-anchor="middle" x="359.09" y="-37.8" font-family="Times,serif" font-size="14.00" style="">Level N</text>
</g>
<!-- manifest_helper&#45;&gt;l2 -->
<!-- l2&#45;&gt;sst_filen -->
<!-- divider_memory_filesystem -->
<g id="node16" class="node" pointer-events="visible" data-name="divider_memory_filesystem">

<ellipse fill="black" stroke="black" cx="80.75" cy="-245" rx="0" ry="0" style=""/>
</g>
<!-- divider_memory_filesystem&#45;&gt;divider_point_writes -->
<g id="edge22" class="edge" data-name="divider_memory_filesystem-&gt;divider_point_writes">

<path fill="none" stroke="black" stroke-dasharray="5,2" d="M81.85,-245C86.03,-245 217.73,-245 221.84,-245" style=""/>
</g>
<!-- filesystem -->
<g id="node17" class="node" pointer-events="visible" data-name="filesystem">

<text text-anchor="middle" x="80.75" y="-204.8" font-family="Times,serif" font-size="14.00" style="">持久化文件系统</text>
</g>
<!-- divider_memory_filesystem&#45;&gt;filesystem -->
<!-- MemTable -->
<g id="node18" class="node" pointer-events="visible" data-name="MemTable">

<polygon fill="none" stroke="black" points="398.01,-299 320.16,-299 320.16,-263 398.01,-263 398.01,-299" style=""/>
<text text-anchor="middle" x="359.09" y="-276.8" font-family="Times,serif" font-size="14.00" style="">MemTable</text>
</g>
<!-- MemTable&#45;&gt;immutable -->
<g id="edge20" class="edge" data-name="MemTable-&gt;immutable">

<path fill="none" stroke="black" d="M398.32,-281C428.22,-281 469.99,-281 502.33,-281" style=""/>
<polygon fill="black" stroke="black" points="502.27,-284.5 512.27,-281 502.27,-277.5 502.27,-284.5" style=""/>
</g>
<!-- MemTable&#45;&gt;divider_m_l0 -->
<!-- writes -->
<g id="node19" class="node" pointer-events="visible" data-name="writes">

<text text-anchor="middle" x="222.94" y="-276.8" font-family="Times,serif" font-size="14.00" style="">写入</text>
</g>
<!-- writes&#45;&gt;divider_point_writes -->
<g id="edge8" class="edge" data-name="writes-&gt;divider_point_writes">

<path fill="none" stroke="black" d="M222.94,-263.14C222.94,-257.19 222.94,-251.23 222.94,-245.28" style=""/>
</g>
<!-- writes&#45;&gt;MemTable -->
<g id="edge19" class="edge" data-name="writes-&gt;MemTable">

<path fill="none" stroke="black" d="M249.8,-281C266.41,-281 288.53,-281 308.45,-281" style=""/>
<polygon fill="black" stroke="black" points="308.34,-284.5 318.34,-281 308.34,-277.5 308.34,-284.5" style=""/>
</g>
<!-- memory -->
<g id="node20" class="node" pointer-events="visible" data-name="memory">

<text text-anchor="middle" x="80.75" y="-276.8" font-family="Times,serif" font-size="14.00" style="">内存</text>
</g>
<!-- memory&#45;&gt;divider_memory_filesystem -->
<!-- memory&#45;&gt;writes -->
<g id="edge18" class="edge" data-name="memory-&gt;writes">

<path fill="none" stroke="black" d="M107.46,-281C129.2,-281 160.61,-281 185.03,-281" style=""/>
<polygon fill="black" stroke="black" points="184.87,-284.5 194.87,-281 184.87,-277.5 184.87,-284.5" style=""/>
</g>
<!-- start -->
<g id="node21" class="node" pointer-events="visible" data-name="start">

<ellipse fill="black" stroke="black" cx="0" cy="-245" rx="0" ry="0" style=""/>
</g>
<!-- start&#45;&gt;divider_memory_filesystem -->
<g id="edge21" class="edge" data-name="start-&gt;divider_memory_filesystem">

<path fill="none" stroke="black" stroke-dasharray="5,2" d="M1.06,-245C3.4,-245 77.38,-245 79.69,-245" style=""/>
</g>
</g>
</svg>