<?xml version="1.0" standalone="no"?>
<svg xmlns="http://www.w3.org/2000/svg" xmlns:xlink="http://www.w3.org/1999/xlink" width="873pt" height="416pt" viewBox="0.00 0.00 873.25 416.16">
<g id="graph0" class="graph" transform="translate(7.836681742354642,363.3140649350777) scale(0.8977114681133874)" data-name="">
<polygon fill="white" stroke="none" points="-4,4 -4,-412.16 869.25,-412.16 869.25,4 -4,4"/>
<!-- sstable --><text text-anchor="middle" x="432.62" y="-8.2" font-family="Times,serif" font-size="14.00">SSTable</text>
<g id="node1" class="node" pointer-events="visible" data-name="sstable">

<polygon fill="none" stroke="black" points="188.75,-347.8 188.75,-385.8 525.75,-385.8 525.75,-347.8 188.75,-347.8"/>
<text text-anchor="start" x="323.04" y="-362.2" font-family="Times,serif" font-size="14.00">data block 1</text>
<polygon fill="none" stroke="black" points="188.75,-309.8 188.75,-347.8 525.75,-347.8 525.75,-309.8 188.75,-309.8"/>
<text text-anchor="start" x="352" y="-324.2" font-family="Times,serif" font-size="14.00">...</text>
<polygon fill="none" stroke="black" points="188.75,-271.8 188.75,-309.8 525.75,-309.8 525.75,-271.8 188.75,-271.8"/>
<text text-anchor="start" x="321.48" y="-286.2" font-family="Times,serif" font-size="14.00">data block N</text>
<polygon fill="none" stroke="black" points="188.75,-233.8 188.75,-271.8 525.75,-271.8 525.75,-233.8 188.75,-233.8"/>
<text text-anchor="start" x="326.34" y="-248.2" font-family="Times,serif" font-size="14.00">filter block</text>
<polygon fill="none" stroke="black" points="188.75,-195.8 188.75,-233.8 525.75,-233.8 525.75,-195.8 188.75,-195.8"/>
<text text-anchor="start" x="352" y="-210.2" font-family="Times,serif" font-size="14.00">...</text>
<polygon fill="none" stroke="black" points="188.75,-157.8 188.75,-195.8 525.75,-195.8 525.75,-157.8 188.75,-157.8"/>
<text text-anchor="start" x="327.5" y="-172.2" font-family="Times,serif" font-size="14.00">stats block</text>
<polygon fill="none" stroke="black" points="188.75,-119.8 188.75,-157.8 525.75,-157.8 525.75,-119.8 188.75,-119.8"/>
<text text-anchor="start" x="324.4" y="-134.2" font-family="Times,serif" font-size="14.00">index block</text>
<polygon fill="none" stroke="black" points="188.75,-81.8 188.75,-119.8 525.75,-119.8 525.75,-81.8 188.75,-81.8"/>
<text text-anchor="start" x="309.04" y="-96.2" font-family="Times,serif" font-size="14.00">meta index block</text>
<polygon fill="none" stroke="black" points="188.75,-43.8 188.75,-81.8 309.75,-81.8 309.75,-43.8 188.75,-43.8"/>
<text text-anchor="start" x="199.69" y="-58.2" font-family="Times,serif" font-size="14.00">metaindex handle</text>
<polygon fill="none" stroke="black" points="309.75,-43.8 309.75,-81.8 402.75,-81.8 402.75,-43.8 309.75,-43.8"/>
<text text-anchor="start" x="320.29" y="-58.2" font-family="Times,serif" font-size="14.00">index handle</text>
<polygon fill="none" stroke="black" points="402.75,-43.8 402.75,-81.8 469.75,-81.8 469.75,-43.8 402.75,-43.8"/>
<text text-anchor="start" x="413.7" y="-58.2" font-family="Times,serif" font-size="14.00">padding</text>
<polygon fill="none" stroke="black" points="469.75,-43.8 469.75,-81.8 525.75,-81.8 525.75,-43.8 469.75,-43.8"/>
<text text-anchor="start" x="480.65" y="-58.2" font-family="Times,serif" font-size="14.00">magic</text>
</g>
<!-- sstable&#45;&gt;sstable -->
<g id="edge1" class="edge" data-name="sstable:ih-&gt;sstable:i" data-comment="sstable-&gt;sstable">

<path fill="none" stroke="black" d="M310.07,-50.69C184.99,-24.35 0,-32.31 0,-100.8 0,-160.54 141.92,-174.23 261.43,-159.27"/>
<polygon fill="black" stroke="black" points="261.6,-162.78 271.05,-157.99 260.68,-155.84 261.6,-162.78"/>
</g>
<!-- sstable&#45;&gt;sstable -->
<g id="edge2" class="edge" data-name="sstable:mh-&gt;sstable:m" data-comment="sstable-&gt;sstable">

<path fill="none" stroke="black" d="M188.92,-46.4C90.09,-24.93 0,-33.07 0,-81.8 0,-127.06 142.97,-137.3 262.75,-121.33"/>
<polygon fill="black" stroke="black" points="262.98,-124.83 272.4,-119.97 262.01,-117.9 262.98,-124.83"/>
</g>
<!-- sstabl -->
<!-- sstable&#45;&gt;inde -->
<g id="edge3" class="edge" data-name="sstable:i-&gt;index" data-comment="sstable-&gt;inde">

<path fill="none" stroke="black" d="M526.75,-138.8C569.38,-138.8 541.56,-192.38 569.25,-224.8 582.65,-240.49 598.92,-255 615.67,-267.9"/>
</g>
<g id="node2" class="node" pointer-events="visible" data-name="index" data-comment="sstable-&gt;inde">

<polygon fill="none" stroke="black" points="577.25,-347.8 577.25,-385.8 673.25,-385.8 673.25,-347.8 577.25,-347.8"/>
<text text-anchor="start" x="595.71" y="-362.2" font-family="Times,serif" font-size="14.00">seprator 0 </text>
<polygon fill="none" stroke="black" points="673.25,-347.8 673.25,-385.8 857.25,-385.8 857.25,-347.8 673.25,-347.8"/>
<text text-anchor="start" x="685.75" y="-362.2" font-family="Times,serif" font-size="14.00">block handle of data block 0</text>
<polygon fill="none" stroke="black" points="577.25,-309.8 577.25,-347.8 857.25,-347.8 857.25,-309.8 577.25,-309.8"/>
<text text-anchor="start" x="712" y="-324.2" font-family="Times,serif" font-size="14.00">...</text>
<polygon fill="none" stroke="black" points="577.25,-271.8 577.25,-309.8 673.25,-309.8 673.25,-271.8 577.25,-271.8"/>
<text text-anchor="start" x="588.12" y="-286.2" font-family="Times,serif" font-size="14.00">successor  N </text>
<polygon fill="none" stroke="black" points="673.25,-271.8 673.25,-309.8 857.25,-309.8 857.25,-271.8 673.25,-271.8"/>
<text text-anchor="start" x="684.19" y="-286.2" font-family="Times,serif" font-size="14.00">block handle of data block N</text>
</g>
<!-- sstable&#45;&gt;index -->

<!-- m -->
<g id="node3" class="node" pointer-events="visible" data-name="meta" data-comment="m">

<polygon fill="none" stroke="black" points="619.25,-142.8 619.25,-180.8 672.25,-180.8 672.25,-142.8 619.25,-142.8"/>
<text text-anchor="start" x="632.15" y="-157.2" font-family="Times,serif" font-size="14.00">filter</text>
<polygon fill="none" stroke="black" points="672.25,-142.8 672.25,-180.8 815.25,-180.8 815.25,-142.8 672.25,-142.8"/>
<text text-anchor="start" x="684.85" y="-157.2" font-family="Times,serif" font-size="14.00">block handle of filter</text>
<polygon fill="none" stroke="black" points="619.25,-104.8 619.25,-142.8 672.25,-142.8 672.25,-104.8 619.25,-104.8"/>
<text text-anchor="start" x="630.2" y="-119.2" font-family="Times,serif" font-size="14.00">index</text>
<polygon fill="none" stroke="black" points="672.25,-104.8 672.25,-142.8 815.25,-142.8 815.25,-104.8 672.25,-104.8"/>
<text text-anchor="start" x="682.91" y="-119.2" font-family="Times,serif" font-size="14.00">block handle of index</text>
<polygon fill="none" stroke="black" points="619.25,-66.8 619.25,-104.8 815.25,-104.8 815.25,-66.8 619.25,-66.8"/>
<text text-anchor="start" x="712" y="-81.2" font-family="Times,serif" font-size="14.00">...</text>
<polygon fill="none" stroke="black" points="619.25,-28.8 619.25,-66.8 672.25,-66.8 672.25,-28.8 619.25,-28.8"/>
<text text-anchor="start" x="633.31" y="-43.2" font-family="Times,serif" font-size="14.00">stats</text>
<polygon fill="none" stroke="black" points="672.25,-28.8 672.25,-66.8 815.25,-66.8 815.25,-28.8 672.25,-28.8"/>
<text text-anchor="start" x="686.01" y="-43.2" font-family="Times,serif" font-size="14.00">block handle of stats</text>
</g><g id="edge4" class="edge" data-name="sstable:m-&gt;meta" data-comment="m">

<path fill="none" stroke="black" d="M526.75,-100.8C554.23,-100.8 583.94,-101.23 611.51,-101.8"/>
</g>
<!-- index&#45;&gt;sstable -->
<g id="edge5" class="edge" data-name="index:hd0-&gt;sstable:d0" data-comment="index-&gt;sstable">

<path fill="none" stroke="black" d="M765.25,-386.8C765.25,-430.36 611.82,-395 569.25,-385.8 553.45,-382.39 549.03,-372.71 537.98,-368.64"/>
<polygon fill="black" stroke="black" points="538.68,-365.21 528.24,-367.04 537.55,-372.12 538.68,-365.21"/>
</g>
<!-- s -->
<g id="edge6" class="edge" data-name="index:hdn-&gt;sstable:dn" data-comment="s">

<path fill="none" stroke="black" d="M765.25,-270.8C765.25,-183.69 654.4,-253.41 569.25,-271.8 553.45,-275.21 549.03,-284.89 537.98,-288.96"/>
<polygon fill="black" stroke="black" points="537.55,-285.48 528.24,-290.56 538.68,-292.39 537.55,-285.48"/>
</g>
<!-- s -->
<g id="edge7" class="edge" data-name="meta:bmf-&gt;sstable:mf" data-comment="s">

<path fill="none" stroke="black" d="M744.25,-181.8C744.25,-262.33 643.79,-198.31 569.25,-228.8 553.41,-235.28 549.61,-246.48 538.06,-250.91"/>
<polygon fill="black" stroke="black" points="537.53,-247.45 528.24,-252.55 538.68,-254.36 537.53,-247.45"/>
</g>

</g>
</svg>